<svg width="24" height="22" viewBox="0 0 24 22" fill="none" xmlns="http://www.w3.org/2000/svg">
<path d="M9.64182 4.20209C10.242 3.9504 10.4937 3.23404 10.2227 2.65321L9.27396 0.659016C9.0029 0.0977388 8.34463 -0.154149 7.76379 0.0977388C6.1181 0.794738 4.70474 1.70471 3.5818 2.80829C2.20716 4.10529 1.27783 5.59609 0.774443 7.24178C0.271055 8.90703 0 11.1721 0 14.0569V20.0007C0 20.6397 0.522749 21.1624 1.16166 21.1624H8.77057C9.40948 21.1624 9.93223 20.6397 9.93223 20.0007V12.3918C9.93223 11.7527 9.40948 11.2302 8.77057 11.2302H5.13069C5.16941 9.2745 5.63407 7.70645 6.48596 6.52523C7.18296 5.57692 8.22846 4.80248 9.64182 4.20209Z" fill="#293B53"/>
<path d="M23.3104 4.20145C23.9106 3.94975 24.1621 3.23339 23.8913 2.65256L22.9426 0.677922C22.6715 0.116451 22.0133 -0.135243 21.4324 0.116451C19.8061 0.81345 18.4119 1.72342 17.2698 2.80764C15.895 4.12419 14.9465 5.615 14.4429 7.26069C13.9395 8.88683 13.688 11.1523 13.688 14.0564V20.0003C13.688 20.6392 14.2107 21.1619 14.8497 21.1619H22.4586C23.0975 21.1619 23.6202 20.6392 23.6202 20.0003V12.3914C23.6202 11.7523 23.0975 11.2297 22.4586 11.2297H18.7993C18.838 9.27405 19.3029 7.70599 20.1546 6.52478C20.8516 5.57628 21.8971 4.80183 23.3104 4.20145Z" fill="#293B53"/>
</svg>
